<?xml version="1.0" encoding="UTF-8" standalone="no"?>
<!-- Created with Inkscape (http://www.inkscape.org/) -->

<svg
   width="49.349895mm"
   height="49.758751mm"
   viewBox="0 0 49.349895 49.758751"
   version="1.1"
   id="svg5"
   inkscape:version="1.1.1 (3bf5ae0d25, 2021-09-20)"
   sodipodi:docname="icon.svg"
   inkscape:export-filename="C:\Users\jonas\favicon.ico"
   inkscape:export-xdpi="102.94"
   inkscape:export-ydpi="102.94"
   xmlns:inkscape="http://www.inkscape.org/namespaces/inkscape"
   xmlns:sodipodi="http://sodipodi.sourceforge.net/DTD/sodipodi-0.dtd"
   xmlns="http://www.w3.org/2000/svg"
   xmlns:svg="http://www.w3.org/2000/svg">
  <sodipodi:namedview
     id="namedview7"
     pagecolor="#ffffff"
     bordercolor="#666666"
     borderopacity="1.0"
     inkscape:pageshadow="2"
     inkscape:pageopacity="0.0"
     inkscape:pagecheckerboard="0"
     inkscape:document-units="mm"
     showgrid="false"
     fit-margin-top="0"
     fit-margin-left="0"
     fit-margin-right="0"
     fit-margin-bottom="0"
     inkscape:zoom="2.0460067"
     inkscape:cx="32.991094"
     inkscape:cy="121.4561"
     inkscape:window-width="1920"
     inkscape:window-height="1001"
     inkscape:window-x="-9"
     inkscape:window-y="-9"
     inkscape:window-maximized="1"
     inkscape:current-layer="layer1" />
  <defs
     id="defs2" />
  <g
     inkscape:label="Ebene 1"
     inkscape:groupmode="layer"
     id="layer1"
     transform="translate(-31.319284,-29.304424)">
    <path
       id="path846"
       style="fill:none;stroke-width:12.70677181;stroke-linecap:round;stroke-linejoin:round;stroke-opacity:1;stroke:#ffffff;stroke-miterlimit:4;stroke-dasharray:none"
       d="M 79.609375 11.240234 L 79.609375 38.988281 L 79.609375 62.6875 L 79.609375 90.433594 L 79.609375 116.72656 A 31.74803 31.74803 0 0 0 75.607422 116.4707 A 31.74803 31.74803 0 0 0 43.859375 148.21875 A 31.74803 31.74803 0 0 0 75.607422 179.9668 A 31.74803 31.74803 0 0 0 107.35547 148.21875 A 31.74803 31.74803 0 0 0 107.35547 148.1543 L 107.35547 90.433594 L 143.05273 90.433594 L 143.05273 62.6875 L 107.35547 62.6875 L 107.35547 38.988281 L 157.71484 38.988281 L 157.71484 11.240234 L 107.35547 11.240234 L 79.609375 11.240234 z "
       transform="matrix(0.26458333,0,0,0.26458333,31.319284,29.304424)"
       inkscape:export-filename="C:\Users\jonas\Desktop\favicon.ico"
       inkscape:export-xdpi="102.94"
       inkscape:export-ydpi="102.94" />
    <rect
       style="fill:none;stroke:none;stroke-width:1.78123;stroke-linecap:round;stroke-linejoin:round;stroke-opacity:1"
       id="rect1018"
       width="49.349895"
       height="49.758751"
       x="31.319284"
       y="29.304424" />
    <circle
       style="fill:#000000;stroke-width:1.76236;stroke-linecap:round;stroke-linejoin:round;stroke-opacity:0"
       id="circle1522"
       cx="-1.5666395"
       cy="67.486328"
       r="8.3999996" />
    <rect
       style="fill:#000000;stroke-width:1.59968;stroke-linecap:round;stroke-linejoin:round;stroke-opacity:0"
       id="rect1524"
       width="7.3414507"
       height="36.225166"
       x="-0.50809151"
       y="31.244097" />
    <rect
       style="fill:#000000;stroke-width:1.20824;stroke-linecap:round;stroke-linejoin:round;stroke-opacity:0"
       id="rect1526"
       width="7.3414507"
       height="20.66564"
       x="31.244097"
       y="-20.157551"
       transform="rotate(90)" />
    <rect
       style="fill:#000000;stroke-width:1.08894;stroke-linecap:round;stroke-linejoin:round;stroke-opacity:0"
       id="rect1528"
       width="7.3414507"
       height="16.786131"
       x="44.855701"
       y="-16.278042"
       transform="rotate(90)" />
  </g>
</svg>
